# xmcd CD database file
#
# Track frame offsets:
#	150
#	16456
#	33967
#	52087
#	72293
#	88194
#	105205
#	125576
#	143043
#	160727
#	178489
#	196775
#	216531
#	232305
#	251143
#	271403
#	290345
#	309921
#	327991
#
# Disc length: 4567 seconds
#
# Revision: 0
# Processed by: cddbd v1.4PL0 Copyright (c) Steve Scherf et al.
# Submitted via: Feurio! 1.66 - http://www.feurio.com
#
DISCID=2111d513
DTITLE=Various Artist - X-Mix Urban Radio 03 - 2002 October
DYEAR=1900
DGENRE=Soul
TTITLE0=3LW - Cam-Ron - Juelz Santana - I Do (rmx)
TTITLE1=Amerie - Talkin' To Me
TTITLE2=Angie Martinez - Take U Home
TTITLE3=Ashanti - Baby
TTITLE4=B2K - Why I Love You
TTITLE5=Erick Sermon - Redman - React
TTITLE6=Fabolous - This Is My Party
TTITLE7=Fat Joe - Ginuwine - Crush Tonight
TTITLE8=Joe Budden - Focus
TTITLE9=Kelly Rowland - Stole
TTITLE10=LL Cool J - Luv U Better
TTITLE11=Missy Elliot - Work It
TTITLE12=Mos Def - Faith Evans - Brown Sugar
TTITLE13=Pastor Troy - Are We Cuttin'
TTITLE14=Petie Pablo - Blow Your Wistle
TTITLE15=Smilez - South Star - Tell Me
TTITLE16=Syleen Johnson - Tonight I'm Gonna Let Go
TTITLE17=702 - Star
TTITLE18=Dani Stevenson - Missy Elliot - Honk Your Horn
EXTD=
EXTT0=
EXTT1=
EXTT2=
EXTT3=
EXTT4=
EXTT5=
EXTT6=
EXTT7=
EXTT8=
EXTT9=
EXTT10=
EXTT11=
EXTT12=
EXTT13=
EXTT14=
EXTT15=
EXTT16=
EXTT17=
EXTT18=
PLAYORDER=
